<svg xmlns="http://www.w3.org/2000/svg" version="1.1" xmlns:xlink="http://www.w3.org/1999/xlink" xmlns:svgjs="http://svgjs.dev/svgjs" width="1500" height="1500" viewBox="0 0 1500 1500"><rect width="1500" height="1500" fill="#ffffff"></rect><g transform="matrix(0.6666666666666666,0,0,0.6666666666666666,245.76126126126115,113.20308510638324)"><svg viewBox="0 0 111 141" data-background-color="#1d366f" preserveAspectRatio="xMidYMid meet" height="1905" width="1500" xmlns="http://www.w3.org/2000/svg" xmlns:xlink="http://www.w3.org/1999/xlink"><g id="tight-bounds" transform="matrix(1,0,0,1,0.47050000000001546,0.19949999999997203)"><svg viewBox="0 0 110.05860743882546 140.60052000000002" height="140.60052000000002" width="110.05860743882546"><g><svg viewBox="0 0 110.05860743882546 140.60052000000002" height="140.60052000000002" width="110.05860743882546"><g><svg viewBox="0 0 110.05860743882546 140.60052000000002" height="140.60052000000002" width="110.05860743882546"><g><path d="M0 140.601v-140.601h110.059v140.601z" fill="#000000" stroke="transparent" stroke-width="0" rx="0%" data-fill-palette-color="tertiary"></path><path d="M3.283 137.317v-134.034h103.492v134.034z" fill="#ffffff" stroke="transparent" stroke-width="0" rx="0%" data-fill-palette-color="quaternary"></path><path d="M9.85 130.751v-120.901h90.359v120.901z" fill="#000000" stroke="transparent" stroke-width="0" data-fill-palette-color="tertiary"></path></g><g transform="matrix(1,0,0,1,19.69974,19.69974)" id="textblocktransform"><svg viewBox="0 0 70.65912743882546 101.20104000000002" height="101.20104000000002" width="70.65912743882546" id="textblock"><g><svg viewBox="0 0 70.65912743882546 101.20104000000002" height="101.20104000000002" width="70.65912743882546"><g transform="matrix(1,0,0,1,0,0)"><svg width="70.65912743882546" viewBox="4.1 -30.65 21.4 30.65" height="101.20104000000002" data-palette-color="#1d366f"><path d="M20.9-11.1L25.5 0 20 0 15.7-10.65Q15.1-12.1 14.23-12.58 13.35-13.05 11.55-13.05L11.55-13.05 9.2-13.05 9.2 0 4.1 0 4.1-30.65 14.35-30.65Q19.8-30.65 22-27.98 24.2-25.3 24.2-21.5L24.2-21.5Q24.2-18.7 22.88-16.53 21.55-14.35 18.3-13.5L18.3-13.5Q20.1-12.85 20.9-11.1L20.9-11.1ZM9.2-14.9L13.8-14.9Q16.5-14.9 17.8-16.82 19.1-18.75 19.1-21.5L19.1-21.5Q19.1-24.55 17.8-26.65 16.5-28.75 13.8-28.75L13.8-28.75 9.2-28.75 9.2-14.9Z" opacity="1" transform="matrix(1,0,0,1,0,0)" fill="#ffffff" class="wordmark-text-0" data-fill-palette-color="quaternary" id="text-0"></path></svg></g></svg></g></svg></g></svg></g><g></g></svg></g><defs></defs></svg><rect width="110.05860743882546" height="140.60052000000002" fill="none" stroke="none" visibility="hidden"></rect></g></svg></g></svg>