<?xml version="1.0" encoding="UTF-8"?>
<svg version="1.1" xmlns="http://www.w3.org/2000/svg" width="500" height="500">
<path d="M0 0 C70.62 0 141.24 0 214 0 C214 94.38 214 188.76 214 286 C143.38 286 72.76 286 0 286 C0 191.62 0 97.24 0 0 Z M23 24 C23 102.54 23 181.08 23 262 C36.2 262 49.4 262 63 262 C63 228.67 63 195.34 63 161 C99.44956772 162.17579251 99.44956772 162.17579251 105.75 167.1875 C111.88762183 174.85952729 115.34588679 183.2778224 118.89453125 192.33203125 C119.45040563 193.73269067 120.00703634 195.13305015 120.56437683 196.53312683 C122.02625247 200.21054433 123.4790917 203.8914611 124.92962646 207.57336426 C127.23683922 213.42489602 129.55875046 219.27061616 131.87894249 225.11701012 C132.67432461 227.12448264 133.4664108 229.13322575 134.25776672 231.14228821 C138.35394482 241.5014416 142.67373259 251.7251149 147 262 C161.19 262 175.38 262 190 262 C182.78788268 243.79235954 175.35457746 225.68275982 167.8659668 207.58740234 C167.47067276 206.63221207 167.07537872 205.67702179 166.66810608 204.69288635 C165.8878234 202.80859669 165.10685917 200.92458909 164.32518005 199.0408783 C162.5219752 194.6930182 160.7290181 190.34174725 158.96630859 185.97729492 C158.65050339 185.19878174 158.33469818 184.42026855 158.00932312 183.61816406 C157.42839682 182.183967 156.85111067 180.74828716 156.27839661 179.31079102 C152.1314391 169.09532254 145.4214896 162.49184266 136 157 C136.82242188 156.70867187 137.64484375 156.41734375 138.4921875 156.1171875 C153.50892176 150.60295945 165.32881526 143.52606826 172.72265625 128.8203125 C182.31159625 107.64840216 182.48873577 85.17421202 174.8125 63.3125 C168.00681858 46.75539446 157.19804586 35.75616826 140.96289062 28.77783203 C106.72467882 15.21030183 42.44309713 24 23 24 Z " fill="#000000" transform="translate(143,107)"/>
<path d="M0 0 C85.8 0 171.6 0 260 0 C260 109.56 260 219.12 260 332 C174.2 332 88.4 332 0 332 C0 222.44 0 112.88 0 0 Z M8 8 C8 112.28 8 216.56 8 324 C88.52 324 169.04 324 252 324 C252 219.72 252 115.44 252 8 C171.48 8 90.96 8 8 8 Z " fill="#000000" transform="translate(120,84)"/>
<path d="M0 0 C51.57894737 0 51.57894737 0 62 9 C74.29491688 21.49322199 77.81600136 39.8770707 78.02294922 56.82421875 C77.85939153 72.33087975 73.79458294 87.25622199 63.2265625 98.96484375 C46.68675722 114.93081905 20.04838068 108 0 108 C0 72.36 0 36.72 0 0 Z " fill="#000000" transform="translate(206,145)"/>
<path d="M0 0 C2 1 2 1 2 1 Z " fill="#202020" transform="translate(118,81)"/>
</svg>
